<svg width="23" height="28" viewBox="0 0 23 28" fill="none" xmlns="http://www.w3.org/2000/svg">
<path d="M19.711 3.20319C19.182 2.68799 18.308 2.68799 17.756 3.20319L11.5 9.29599L5.22098 3.20319C4.69198 2.68799 3.81798 2.68799 3.26598 3.20319C2.73698 3.71839 2.73698 4.56959 3.26598 5.10719L9.54498 11.2L3.28898 17.3152C2.75998 17.8304 2.75998 18.6816 3.28898 19.2192C3.56498 19.488 3.90998 19.6224 4.25498 19.6224C4.59998 19.6224 4.96798 19.488 5.22098 19.2192L11.5 13.104L17.779 19.2192C18.055 19.488 18.4 19.6224 18.745 19.6224C19.09 19.6224 19.458 19.488 19.711 19.2192C20.24 18.704 20.24 17.8528 19.711 17.3152L13.455 11.2L19.734 5.08479C20.263 4.56959 20.263 3.71839 19.711 3.20319Z" fill="black"/>
</svg>
