<svg width="347" height="281" viewBox="0 0 347 281" fill="none" xmlns="http://www.w3.org/2000/svg">
<path d="M331.668 171.642C331.287 172.373 330.89 173.09 330.48 173.804C314.761 201.131 278.196 218.102 216.53 209.12C181.516 203.777 166.605 223.374 152.166 243.447C151.919 243.793 151.672 244.14 151.421 244.486C136.301 265.535 121.331 286.643 83.8998 279.627C44.2183 273.366 19.7285 241.214 15.939 206.887C15.8928 206.47 15.8511 206.048 15.8133 205.631C13.6844 183.375 20.2638 160.331 37.049 142.934C47.1881 132.428 61.5933 126.847 76.4628 127.022C80.9399 127.106 85.415 126.775 89.8308 126.033C90.8054 125.862 91.7508 125.674 92.6709 125.461C111.614 121.141 120.344 108.298 125.698 92.6249C125.823 92.2534 125.949 91.8819 126.07 91.5062C138.363 54.1285 132.679 1.66597 199.51 9.38362C259.315 13.783 303.204 46.8741 324.733 85.0533C324.946 85.4373 325.159 85.8213 325.368 86.2053C331.285 96.7988 335.508 108.25 337.883 120.144C338.017 120.812 338.138 121.479 338.251 122.147C341.296 139.878 339.301 157.113 331.668 171.642Z" fill="#F2F2F2"/>
<path d="M325.368 86.2053C321.078 91.294 316.243 95.9001 310.951 99.9418C290.334 115.719 264.221 124.276 238.46 126.071C225.221 127 211.916 126.098 198.925 123.391C185.707 120.628 173.101 115.761 160.891 110.076C149.016 104.546 137.493 98.3098 125.698 92.6249C125.823 92.2534 125.949 91.8819 126.07 91.5062C138.932 97.6837 151.53 104.491 164.543 110.377C176.802 115.924 189.493 120.448 202.764 122.869C216.006 125.268 229.521 125.797 242.91 124.439C268.601 121.859 294.734 112.401 314.485 95.4799C318.193 92.3031 321.622 88.8148 324.733 85.0533C324.946 85.4373 325.159 85.8213 325.368 86.2053Z" fill="white"/>
<path d="M236.109 0.392623C236.079 0.392623 236.049 0.393577 236.019 0.395488C204.317 2.37743 179.484 28.7831 179.484 60.5109C179.484 92.2388 204.317 118.645 236.019 120.626C236.208 120.639 236.398 120.612 236.577 120.548C236.755 120.484 236.919 120.384 237.057 120.254C237.194 120.126 237.304 119.971 237.379 119.799C237.453 119.627 237.491 119.441 237.491 119.253V1.76845C237.49 1.40322 237.344 1.05323 237.085 0.795289C236.826 0.537352 236.475 0.392532 236.109 0.392609L236.109 0.392623Z" fill="#CCCCCC"/>
<path d="M284.578 100.656C284.108 100.655 283.657 100.469 283.325 100.138L242.335 59.2343C242.17 59.0707 242.039 58.8761 241.95 58.6617C241.861 58.4474 241.816 58.2175 241.817 57.9855V1.76848C241.816 1.52725 241.865 1.28844 241.961 1.06706C242.057 0.845685 242.198 0.646533 242.375 0.482134C242.552 0.315698 242.762 0.18737 242.991 0.1051C243.22 0.0228298 243.464 -0.0116282 243.707 0.00385049C275.615 1.9986 300.609 28.5765 300.609 60.5109C300.61 75.0167 295.399 89.042 285.922 100.041C285.762 100.225 285.566 100.375 285.347 100.48C285.127 100.586 284.888 100.645 284.644 100.655C284.622 100.655 284.6 100.656 284.578 100.656Z" fill="#CCCCCC"/>
<path d="M243.594 121.022C243.141 121.021 242.706 120.849 242.375 120.541C242.198 120.376 242.057 120.177 241.961 119.955C241.865 119.733 241.816 119.494 241.817 119.253V68.5304C241.817 68.1812 241.92 67.8398 242.115 67.5494C242.309 67.259 242.586 67.0327 242.909 66.899C243.232 66.7653 243.588 66.7304 243.931 66.7985C244.275 66.8666 244.59 67.0347 244.838 67.2816L280.606 102.975C280.776 103.145 280.909 103.347 280.998 103.57C281.088 103.793 281.13 104.032 281.124 104.271C281.118 104.511 281.063 104.747 280.962 104.965C280.862 105.183 280.718 105.379 280.54 105.539C270.356 114.688 257.378 120.142 243.703 121.018C243.667 121.02 243.63 121.022 243.594 121.022Z" fill="#2357DB"/>
<path d="M338.251 122.147C332.512 132.303 324.41 141.26 315.133 148.36C294.517 164.137 268.404 172.694 242.643 174.489C229.403 175.417 216.099 174.516 203.107 171.809C189.89 169.046 177.283 164.179 165.074 158.494C152.643 152.705 140.592 146.139 128.216 140.241C115.852 134.348 103.144 129.322 89.8308 126.033C90.8054 125.862 91.7508 125.674 92.6709 125.461C93.5409 125.687 94.4082 125.92 95.2726 126.163C121.306 133.425 144.282 147.738 168.725 158.795C180.985 164.342 193.675 168.866 206.947 171.287C220.189 173.686 233.703 174.214 247.093 172.857C272.783 170.277 298.917 160.819 318.668 143.898C326.485 137.229 333 129.176 337.883 120.144C338.017 120.812 338.138 121.479 338.251 122.147Z" fill="white"/>
<path d="M79.7966 211.311C105.445 218.466 128.124 232.465 152.166 243.447C151.919 243.793 151.672 244.14 151.421 244.486C150.811 244.206 150.204 243.927 149.598 243.643C137.167 237.854 125.116 231.288 112.74 225.39C100.112 219.371 87.1288 214.258 73.5057 210.973C54.6748 206.447 35.2223 205.066 15.939 206.887C15.8928 206.47 15.8511 206.048 15.8134 205.631C37.3098 203.606 58.996 205.531 79.7966 211.311Z" fill="white"/>
<path d="M182.884 251.585H0.478762C0.351789 251.585 0.230015 251.534 0.140231 251.445C0.0504473 251.355 7.62939e-06 251.234 7.62939e-06 251.107C7.62939e-06 250.98 0.0504473 250.859 0.140231 250.769C0.230015 250.679 0.351789 250.629 0.478762 250.629H182.884C183.011 250.629 183.133 250.679 183.223 250.769C183.313 250.859 183.363 250.98 183.363 251.107C183.363 251.234 183.313 251.355 183.223 251.445C183.133 251.534 183.011 251.585 182.884 251.585Z" fill="#CCCCCC"/>
<path d="M74.264 187.134C80.7582 187.134 86.0228 181.88 86.0228 175.4C86.0228 168.919 80.7582 163.666 74.264 163.666C67.7699 163.666 62.5053 168.919 62.5053 175.4C62.5053 181.88 67.7699 187.134 74.264 187.134Z" fill="#A0616A"/>
<path d="M118.262 258.197L118.536 264.048L96.0521 267.889L95.6471 259.254L118.262 258.197Z" fill="#A0616A"/>
<path d="M123.875 256.439L124.499 269.74L124.26 269.751C122.413 269.873 120.573 269.428 118.985 268.478C117.55 267.565 116.723 266.301 116.658 264.918V264.918L116.277 256.794L123.875 256.439Z" fill="#2F2E41"/>
<path d="M117.632 267.825L123.502 267.824L126.294 245.232L117.631 245.233L117.632 267.825Z" fill="#A0616A"/>
<path d="M116.135 265.912L127.694 265.912H127.695C128.662 265.912 129.62 266.102 130.514 266.471C131.407 266.841 132.22 267.382 132.904 268.065C133.588 268.747 134.13 269.558 134.5 270.449C134.871 271.341 135.061 272.297 135.061 273.263V273.501L116.136 273.502L116.135 265.912Z" fill="#2F2E41"/>
<path d="M62.2202 262.352C62.8632 261.963 63.4131 261.438 63.8309 260.815C64.2487 260.191 64.5245 259.483 64.6386 258.742C64.7528 258 64.7026 257.242 64.4916 256.522C64.2806 255.802 63.914 255.137 63.4175 254.573L68.1022 208.062L56.9447 208.84L55.8482 254.315C54.9549 255.21 54.4217 256.401 54.3496 257.662C54.2775 258.923 54.6714 260.167 55.4569 261.158C56.2423 262.148 57.3646 262.817 58.6111 263.037C59.8576 263.257 61.1417 263.013 62.2202 262.352V262.352Z" fill="#A0616A"/>
<path d="M68.0476 216.124L56.4861 214.718C56.1572 214.678 55.8407 214.568 55.5583 214.395C55.2759 214.222 55.0342 213.99 54.8497 213.716C54.6651 213.441 54.5421 213.13 54.4889 212.803C54.4357 212.477 54.4537 212.143 54.5415 211.824L57.6202 200.651C57.8348 198.973 58.7076 197.448 60.0473 196.411C61.3869 195.374 63.084 194.909 64.7665 195.118C66.449 195.328 67.9796 196.195 69.0226 197.529C70.0656 198.863 70.5359 200.555 70.3304 202.235L70.6319 213.781C70.6404 214.111 70.5775 214.44 70.4473 214.744C70.3171 215.048 70.1228 215.321 69.8775 215.543C69.6323 215.765 69.3419 215.933 69.0261 216.033C68.7103 216.133 68.3766 216.164 68.0476 216.124Z" fill="#2357DB"/>
<path d="M66.4303 268.94C65.0293 268.845 63.6784 268.382 62.5142 267.598C61.35 266.814 60.4136 265.738 59.7999 264.477C59.1861 263.217 58.9167 261.817 59.0188 260.42C59.1209 259.022 59.5909 257.676 60.3814 256.518L67.9333 248.694L95.4618 224.09L110.179 211.903C111.038 211.192 112.063 210.71 113.16 210.503C114.256 210.295 115.387 210.369 116.447 210.717C117.507 211.065 118.461 211.676 119.22 212.493C119.978 213.309 120.517 214.305 120.785 215.386L128.474 246.425C128.603 246.941 128.535 247.487 128.283 247.956C128.031 248.425 127.614 248.784 127.112 248.964L118.73 251.975C118.449 252.076 118.15 252.117 117.853 252.097C117.555 252.077 117.265 251.995 117 251.857C116.736 251.719 116.504 251.527 116.317 251.295C116.131 251.062 115.995 250.794 115.918 250.506L112.73 238.574L94.9879 255.499L100.523 257.532C101.031 257.721 101.449 258.093 101.695 258.575C101.942 259.056 101.998 259.613 101.853 260.134L100.064 266.458C99.9404 266.899 99.6785 267.289 99.3166 267.57C98.9547 267.852 98.5119 268.011 98.0531 268.022L66.4303 268.94Z" fill="#2F2E41"/>
<path d="M65.6784 251.299L64.9502 224.758L60.357 213.117C59.4191 210.742 59.0128 208.191 59.1663 205.643C59.3199 203.095 60.0296 200.611 61.2459 198.365C62.4623 196.12 64.1557 194.167 66.2077 192.642C68.2598 191.118 70.6209 190.06 73.1257 189.542C73.5038 189.464 73.8808 189.387 74.2567 189.313C76.6595 188.837 79.1355 188.868 81.5255 189.404C83.9154 189.941 86.1664 190.971 88.1336 192.427C90.1008 193.884 91.7406 195.736 92.9475 197.863C94.1545 199.99 94.9018 202.346 95.1415 204.779L97.3 224.759L97.2912 224.798C93.8494 240.075 83.8897 248.483 65.947 251.257L65.6784 251.299Z" fill="#2357DB"/>
<path d="M76.5417 232.863C76.8035 232.823 77.0681 232.803 77.333 232.804L90.6229 213.17L88.106 207.991L95.4421 203.179L100.791 211.916C101.223 212.621 101.414 213.448 101.335 214.271C101.256 215.095 100.912 215.87 100.354 216.482L82.1648 236.41C82.4505 237.388 82.4311 238.429 82.1093 239.396C81.7874 240.362 81.1784 241.208 80.3631 241.82C79.5478 242.433 78.565 242.783 77.5453 242.825C76.5256 242.867 75.5174 242.597 74.6548 242.053C73.7921 241.509 73.116 240.716 72.7163 239.779C72.3165 238.841 72.2121 237.805 72.4169 236.808C72.6218 235.81 73.1262 234.898 73.863 234.193C74.5998 233.489 75.5341 233.025 76.5417 232.863Z" fill="#A0616A"/>
<path d="M89.4599 212.805C89.1617 212.722 88.8849 212.576 88.6485 212.377C88.4122 212.177 88.2217 211.929 88.0901 211.649L83.4939 201.882C82.6175 200.566 82.3 198.956 82.6109 197.407C82.9218 195.857 83.8358 194.493 85.1524 193.615C86.4691 192.737 88.081 192.415 89.6349 192.721C91.1888 193.026 92.5578 193.934 93.4419 195.246L100.704 203.288C100.911 203.517 101.066 203.789 101.159 204.083C101.252 204.378 101.279 204.689 101.241 204.996C101.202 205.302 101.097 205.597 100.934 205.86C100.771 206.122 100.553 206.347 100.295 206.517L91.232 212.526C90.9742 212.697 90.6824 212.81 90.3765 212.859C90.0707 212.907 89.758 212.889 89.4599 212.805Z" fill="#2357DB"/>
<path d="M230.225 184.502H191.412C190.853 184.502 190.316 184.28 189.921 183.885C189.525 183.49 189.303 182.955 189.303 182.397C189.303 181.838 189.525 181.303 189.921 180.908C190.316 180.513 190.853 180.292 191.412 180.292H230.225C230.785 180.292 231.321 180.513 231.717 180.908C232.112 181.303 232.334 181.838 232.334 182.397C232.334 182.955 232.112 183.49 231.717 183.885C231.321 184.28 230.785 184.502 230.225 184.502Z" fill="#CCCCCC"/>
<path d="M179.811 186.607C178.935 186.607 178.078 186.347 177.35 185.862C176.621 185.376 176.054 184.685 175.718 183.878C175.383 183.07 175.295 182.181 175.466 181.324C175.637 180.466 176.059 179.679 176.679 179.06C177.298 178.442 178.087 178.021 178.947 177.851C179.806 177.68 180.697 177.768 181.506 178.102C182.315 178.437 183.007 179.003 183.494 179.73C183.981 180.457 184.241 181.312 184.241 182.186C184.239 183.358 183.772 184.482 182.942 185.31C182.111 186.139 180.985 186.605 179.811 186.607Z" fill="#3F3D56"/>
<path d="M230.225 197.131H191.412C190.853 197.131 190.316 196.91 189.921 196.515C189.525 196.12 189.303 195.585 189.303 195.026C189.303 194.468 189.525 193.933 189.921 193.538C190.316 193.143 190.853 192.921 191.412 192.921H230.225C230.785 192.921 231.321 193.143 231.717 193.538C232.112 193.933 232.334 194.468 232.334 195.026C232.334 195.585 232.112 196.12 231.717 196.515C231.321 196.91 230.785 197.131 230.225 197.131Z" fill="#CCCCCC"/>
<path d="M179.811 199.236C178.935 199.236 178.078 198.977 177.35 198.491C176.621 198.006 176.054 197.315 175.718 196.508C175.383 195.7 175.295 194.811 175.466 193.954C175.637 193.096 176.059 192.308 176.679 191.69C177.298 191.072 178.087 190.651 178.947 190.48C179.806 190.31 180.697 190.397 181.506 190.732C182.315 191.067 183.007 191.633 183.494 192.36C183.981 193.087 184.241 193.942 184.241 194.816C184.239 195.988 183.772 197.111 182.942 197.94C182.111 198.769 180.985 199.235 179.811 199.236Z" fill="#3F3D56"/>
<path d="M230.225 209.761H191.412C190.853 209.761 190.316 209.539 189.921 209.145C189.525 208.75 189.303 208.214 189.303 207.656C189.303 207.098 189.525 206.562 189.921 206.168C190.316 205.773 190.853 205.551 191.412 205.551H230.225C230.785 205.551 231.321 205.773 231.717 206.168C232.112 206.562 232.334 207.098 232.334 207.656C232.334 208.214 232.112 208.75 231.717 209.145C231.321 209.539 230.785 209.761 230.225 209.761Z" fill="#CCCCCC"/>
<path d="M179.811 211.866C178.935 211.866 178.078 211.607 177.35 211.121C176.621 210.635 176.054 209.945 175.718 209.137C175.383 208.33 175.295 207.441 175.466 206.583C175.637 205.726 176.059 204.938 176.679 204.32C177.298 203.702 178.087 203.281 178.947 203.11C179.806 202.94 180.697 203.027 181.506 203.362C182.315 203.696 183.007 204.263 183.494 204.99C183.981 205.717 184.241 206.571 184.241 207.446C184.239 208.618 183.772 209.741 182.942 210.57C182.111 211.399 180.985 211.865 179.811 211.866Z" fill="#3F3D56"/>
<path d="M241.376 194.97H257.408C257.52 194.97 257.627 194.925 257.706 194.846C257.785 194.767 257.83 194.66 257.83 194.549V95.6488C257.83 95.5371 257.785 95.43 257.706 95.3511C257.627 95.2721 257.52 95.2278 257.408 95.2278C257.296 95.2278 257.189 95.2721 257.109 95.3511C257.03 95.43 256.986 95.5371 256.986 95.6488V194.128H241.376C241.321 194.127 241.266 194.138 241.215 194.159C241.163 194.18 241.117 194.211 241.077 194.25C241.038 194.29 241.007 194.336 240.985 194.387C240.964 194.438 240.953 194.493 240.953 194.549C240.953 194.604 240.964 194.659 240.985 194.71C241.007 194.761 241.038 194.808 241.077 194.847C241.117 194.886 241.163 194.917 241.215 194.938C241.266 194.959 241.321 194.97 241.376 194.97Z" fill="#3F3D56"/>
<path d="M310.071 31.0089C308.999 31.0951 307.925 30.8621 306.986 30.3394C306.047 29.8168 305.284 29.0279 304.794 28.0726C304.304 27.1173 304.109 26.0384 304.233 24.9724C304.358 23.9064 304.796 22.9012 305.493 22.0839C306.19 21.2665 307.114 20.6738 308.149 20.3806C309.183 20.0874 310.282 20.1069 311.305 20.4366C312.329 20.7664 313.231 21.3915 313.898 22.2331C314.566 23.0747 314.968 24.0948 315.054 25.1646C315.17 26.599 314.71 28.0206 313.776 29.1166C312.841 30.2127 311.508 30.8933 310.071 31.0089ZM310.004 30.1768C310.911 30.1039 311.776 29.7642 312.489 29.2007C313.203 28.6372 313.733 27.8752 314.013 27.011C314.292 26.1469 314.309 25.2194 314.06 24.3458C313.812 23.4723 313.309 22.692 312.616 22.1035C311.923 21.515 311.071 21.1448 310.167 21.0397C309.263 20.9347 308.348 21.0994 307.538 21.5132C306.728 21.9269 306.059 22.5711 305.616 23.3642C305.173 24.1573 304.975 25.0638 305.048 25.9689C305.097 26.5699 305.263 27.1555 305.539 27.6922C305.814 28.229 306.193 28.7063 306.653 29.0971C307.113 29.4878 307.646 29.7843 308.221 29.9695C308.796 30.1548 309.402 30.2252 310.004 30.1768V30.1768Z" fill="#CCCCCC"/>
<path d="M328.795 17.0859C330.643 17.0859 332.141 15.5909 332.141 13.7467C332.141 11.9026 330.643 10.4076 328.795 10.4076C326.946 10.4076 325.448 11.9026 325.448 13.7467C325.448 15.5909 326.946 17.0859 328.795 17.0859Z" fill="#CCCCCC"/>
<path d="M345.242 5.00999C346.213 5.00999 347 4.22468 347 3.25595C347 2.28723 346.213 1.50192 345.242 1.50192C344.271 1.50192 343.484 2.28723 343.484 3.25595C343.484 4.22468 344.271 5.00999 345.242 5.00999Z" fill="#CCCCCC"/>
<path d="M284.521 137.812C283.928 138.708 283.083 139.407 282.091 139.823C281.1 140.239 280.007 140.352 278.951 140.148C277.896 139.944 276.924 139.432 276.16 138.677C275.395 137.923 274.872 136.958 274.657 135.907C274.442 134.855 274.544 133.764 274.95 132.77C275.357 131.777 276.049 130.926 276.941 130.325C277.832 129.724 278.881 129.4 279.957 129.395C281.032 129.389 282.085 129.702 282.982 130.294C284.184 131.088 285.021 132.326 285.31 133.735C285.598 135.145 285.315 136.611 284.521 137.812ZM276.146 132.29C275.644 133.047 275.379 133.936 275.384 134.845C275.388 135.753 275.663 136.639 276.172 137.391C276.682 138.144 277.403 138.729 278.246 139.072C279.088 139.415 280.014 139.501 280.906 139.319C281.797 139.138 282.615 138.696 283.255 138.051C283.895 137.405 284.329 136.585 284.502 135.693C284.675 134.802 284.579 133.879 284.226 133.042C283.874 132.205 283.28 131.491 282.521 130.99C281.503 130.32 280.26 130.081 279.064 130.325C277.869 130.568 276.82 131.275 276.146 132.29Z" fill="#CCCCCC"/>
<path d="M291.036 157.768C292.884 157.768 294.382 156.273 294.382 154.429C294.382 152.585 292.884 151.09 291.036 151.09C289.187 151.09 287.689 152.585 287.689 154.429C287.689 156.273 289.187 157.768 291.036 157.768Z" fill="#CCCCCC"/>
<path d="M300.369 173.291C301.34 173.291 302.127 172.506 302.127 171.537C302.127 170.569 301.34 169.783 300.369 169.783C299.399 169.783 298.612 170.569 298.612 171.537C298.612 172.506 299.399 173.291 300.369 173.291Z" fill="#CCCCCC"/>
<path d="M149.504 46.6793C149.026 45.7183 148.844 44.6372 148.981 43.5728C149.118 42.5083 149.568 41.5084 150.275 40.6994C150.981 39.8903 151.913 39.3086 152.95 39.0277C153.988 38.7467 155.087 38.7793 156.106 39.1211C157.125 39.463 158.02 40.0989 158.678 40.9483C159.335 41.7977 159.725 42.8226 159.799 43.8932C159.872 44.9639 159.626 46.0323 159.091 46.9634C158.556 47.8944 157.757 48.6462 156.794 49.1238C155.502 49.7626 154.009 49.864 152.642 49.4057C151.276 48.9474 150.147 47.967 149.504 46.6793ZM158.494 42.2214C158.089 41.4082 157.452 40.733 156.662 40.2814C155.873 39.8297 154.967 39.6219 154.059 39.684C153.151 39.7462 152.282 40.0756 151.562 40.6306C150.842 41.1856 150.302 41.9412 150.013 42.802C149.723 43.6628 149.695 44.59 149.933 45.4664C150.171 46.3429 150.665 47.1291 151.351 47.7258C152.037 48.3224 152.885 48.7027 153.787 48.8185C154.69 48.9343 155.606 48.7804 156.421 48.3762C157.513 47.8333 158.344 46.8804 158.733 45.7265C159.122 44.5726 159.036 43.3121 158.494 42.2214Z" fill="#CCCCCC"/>
<path d="M131.832 47.3027C133.68 47.3027 135.178 45.8077 135.178 43.9635C135.178 42.1193 133.68 40.6243 131.832 40.6243C129.984 40.6243 128.486 42.1193 128.486 43.9635C128.486 45.8077 129.984 47.3027 131.832 47.3027Z" fill="#CCCCCC"/>
<path d="M112.319 45.1888C113.29 45.1888 114.077 44.4035 114.077 43.4348C114.077 42.4661 113.29 41.6808 112.319 41.6808C111.348 41.6808 110.561 42.4661 110.561 43.4348C110.561 44.4035 111.348 45.1888 112.319 45.1888Z" fill="#CCCCCC"/>
<path d="M86.6904 176.426L86.2002 175.18C84.848 171.741 81.6146 169.097 78.1543 168.601C76.4278 168.376 74.6727 168.644 73.0931 169.375C71.5135 170.106 70.1742 171.269 69.2311 172.73C68.4307 174.116 67.7988 175.592 67.3488 177.127C67.1945 177.584 67.0391 177.914 66.7404 178.014C66.4042 178.135 66.0696 177.928 65.5151 177.585C65.3915 177.509 65.2486 177.469 65.1032 177.471C64.9577 177.472 64.8157 177.515 64.6937 177.594C64.5718 177.673 64.4748 177.785 64.4143 177.917C64.3537 178.049 64.332 178.196 64.3516 178.339L64.9331 182.481L64.4465 182.049C61.2807 179.237 60.6303 173.946 62.9172 170.589L57.7125 171.656L57.947 171.209C60.1086 167.046 63.8343 163.906 68.3093 162.476L63.324 161.381L63.8279 161.071C68.2924 158.326 74.1821 158.404 78.8319 161.263C81.1672 162.756 83.1014 164.796 84.4662 167.206C85.831 169.615 86.5849 172.321 86.6624 175.087L86.6904 176.426Z" fill="#2F2E41"/>
</svg>
